<mxfile host="65bd71144e">
    <diagram id="07HtjTy1fav1epynoDyd" name="Page-1">
        <mxGraphModel dx="2341" dy="726" grid="1" gridSize="10" guides="1" tooltips="1" connect="1" arrows="1" fold="1" page="1" pageScale="1" pageWidth="850" pageHeight="1100" math="0" shadow="0">
            <root>
                <mxCell id="0"/>
                <mxCell id="1" parent="0"/>
                <mxCell id="76" value="" style="rounded=0;whiteSpace=wrap;html=1;dashed=1;" parent="1" vertex="1">
                    <mxGeometry x="780" y="682.31" width="570" height="110" as="geometry"/>
                </mxCell>
                <mxCell id="35" value="" style="rounded=0;whiteSpace=wrap;html=1;dashed=1;" parent="1" vertex="1">
                    <mxGeometry x="340" y="850" width="365" height="370" as="geometry"/>
                </mxCell>
                <mxCell id="49" value="" style="group" parent="1" vertex="1" connectable="0">
                    <mxGeometry x="220" y="850" width="100" height="370" as="geometry"/>
                </mxCell>
                <mxCell id="50" value="" style="rounded=0;whiteSpace=wrap;html=1;dashed=1;" parent="49" vertex="1">
                    <mxGeometry width="100" height="370" as="geometry"/>
                </mxCell>
                <mxCell id="51" value="Prompt Template" style="text;html=1;strokeColor=none;fillColor=none;align=center;verticalAlign=middle;whiteSpace=wrap;rounded=0;dashed=1;" parent="49" vertex="1">
                    <mxGeometry width="100" height="27.073170731707318" as="geometry"/>
                </mxCell>
                <mxCell id="2" value="" style="group" parent="1" vertex="1" connectable="0">
                    <mxGeometry x="220" y="380" width="230" height="410" as="geometry"/>
                </mxCell>
                <mxCell id="3" value="" style="rounded=0;whiteSpace=wrap;html=1;dashed=1;" parent="2" vertex="1">
                    <mxGeometry y="10" width="230.00000000000003" height="410" as="geometry"/>
                </mxCell>
                <mxCell id="4" value="Data Processor" style="text;html=1;strokeColor=none;fillColor=none;align=center;verticalAlign=middle;whiteSpace=wrap;rounded=0;dashed=1;" parent="2" vertex="1">
                    <mxGeometry y="10" width="90" height="30" as="geometry"/>
                </mxCell>
                <mxCell id="5" value="Chunking by JSON" style="rounded=0;whiteSpace=wrap;html=1;" parent="2" vertex="1">
                    <mxGeometry x="15" y="40" width="80" height="40" as="geometry"/>
                </mxCell>
                <mxCell id="6" value="Multi-representation Indexing" style="rounded=0;whiteSpace=wrap;html=1;" parent="2" vertex="1">
                    <mxGeometry x="125" y="155" width="80" height="40" as="geometry"/>
                </mxCell>
                <mxCell id="7" value="Chunking by HTML" style="rounded=0;whiteSpace=wrap;html=1;" parent="2" vertex="1">
                    <mxGeometry x="15" y="120" width="80" height="40" as="geometry"/>
                </mxCell>
                <mxCell id="8" value="Chunking by PDF" style="rounded=0;whiteSpace=wrap;html=1;" parent="2" vertex="1">
                    <mxGeometry x="15" y="200" width="80" height="40" as="geometry"/>
                </mxCell>
                <mxCell id="9" value="Chunking by MS Office" style="rounded=0;whiteSpace=wrap;html=1;" parent="2" vertex="1">
                    <mxGeometry x="15" y="280" width="80" height="40" as="geometry"/>
                </mxCell>
                <mxCell id="106" value="" style="endArrow=classic;html=1;exitX=1;exitY=0.5;exitDx=0;exitDy=0;entryX=0;entryY=0.5;entryDx=0;entryDy=0;" edge="1" parent="2" source="5" target="6">
                    <mxGeometry width="50" height="50" relative="1" as="geometry">
                        <mxPoint x="265" y="230" as="sourcePoint"/>
                        <mxPoint x="315" y="180" as="targetPoint"/>
                    </mxGeometry>
                </mxCell>
                <mxCell id="107" value="" style="endArrow=classic;html=1;exitX=1;exitY=0.5;exitDx=0;exitDy=0;entryX=0;entryY=0.5;entryDx=0;entryDy=0;" edge="1" parent="2" source="7" target="6">
                    <mxGeometry width="50" height="50" relative="1" as="geometry">
                        <mxPoint x="265" y="230" as="sourcePoint"/>
                        <mxPoint x="315" y="180" as="targetPoint"/>
                    </mxGeometry>
                </mxCell>
                <mxCell id="108" value="" style="endArrow=classic;html=1;exitX=1;exitY=0.5;exitDx=0;exitDy=0;entryX=0;entryY=0.5;entryDx=0;entryDy=0;" edge="1" parent="2" source="8" target="6">
                    <mxGeometry width="50" height="50" relative="1" as="geometry">
                        <mxPoint x="270" y="270" as="sourcePoint"/>
                        <mxPoint x="320" y="220" as="targetPoint"/>
                    </mxGeometry>
                </mxCell>
                <mxCell id="109" value="" style="endArrow=classic;html=1;exitX=1;exitY=0.5;exitDx=0;exitDy=0;entryX=0;entryY=0.5;entryDx=0;entryDy=0;" edge="1" parent="2" source="9" target="6">
                    <mxGeometry width="50" height="50" relative="1" as="geometry">
                        <mxPoint x="265" y="230" as="sourcePoint"/>
                        <mxPoint x="315" y="180" as="targetPoint"/>
                    </mxGeometry>
                </mxCell>
                <mxCell id="118" value="Other Process" style="rounded=0;whiteSpace=wrap;html=1;" vertex="1" parent="2">
                    <mxGeometry x="75" y="360" width="80" height="40" as="geometry"/>
                </mxCell>
                <mxCell id="10" value="" style="group" parent="1" vertex="1" connectable="0">
                    <mxGeometry x="80" y="390" width="120" height="410" as="geometry"/>
                </mxCell>
                <mxCell id="11" value="" style="rounded=0;whiteSpace=wrap;html=1;dashed=1;" parent="10" vertex="1">
                    <mxGeometry width="120.00000000000001" height="410" as="geometry"/>
                </mxCell>
                <mxCell id="12" value="Data Loader" style="text;html=1;strokeColor=none;fillColor=none;align=center;verticalAlign=middle;whiteSpace=wrap;rounded=0;dashed=1;" parent="10" vertex="1">
                    <mxGeometry width="70" height="30" as="geometry"/>
                </mxCell>
                <mxCell id="20" value="JSON" style="rounded=0;whiteSpace=wrap;html=1;" parent="10" vertex="1">
                    <mxGeometry x="20" y="30" width="80" height="40" as="geometry"/>
                </mxCell>
                <mxCell id="21" value="HTML" style="rounded=0;whiteSpace=wrap;html=1;" parent="10" vertex="1">
                    <mxGeometry x="20" y="110" width="80" height="40" as="geometry"/>
                </mxCell>
                <mxCell id="22" value="PDF" style="rounded=0;whiteSpace=wrap;html=1;" parent="10" vertex="1">
                    <mxGeometry x="20" y="190" width="80" height="40" as="geometry"/>
                </mxCell>
                <mxCell id="23" value="MS Office" style="rounded=0;whiteSpace=wrap;html=1;" parent="10" vertex="1">
                    <mxGeometry x="20" y="270" width="80" height="40" as="geometry"/>
                </mxCell>
                <mxCell id="119" value="Other Data" style="rounded=0;whiteSpace=wrap;html=1;" vertex="1" parent="10">
                    <mxGeometry x="20" y="350" width="80" height="40" as="geometry"/>
                </mxCell>
                <mxCell id="13" value="" style="group" parent="1" vertex="1" connectable="0">
                    <mxGeometry x="-130" y="610" width="170" height="410" as="geometry"/>
                </mxCell>
                <mxCell id="14" value="" style="rounded=0;whiteSpace=wrap;html=1;dashed=1;" parent="13" vertex="1">
                    <mxGeometry width="170" height="410" as="geometry"/>
                </mxCell>
                <mxCell id="15" value="Use Case" style="text;html=1;strokeColor=none;fillColor=none;align=center;verticalAlign=middle;whiteSpace=wrap;rounded=0;dashed=1;fontSize=16;" parent="13" vertex="1">
                    <mxGeometry width="80" height="30" as="geometry"/>
                </mxCell>
                <mxCell id="16" value="System Monitor Assistant" style="rounded=0;whiteSpace=wrap;html=1;" parent="1" vertex="1">
                    <mxGeometry x="-105.69999999999999" y="640" width="120" height="60" as="geometry"/>
                </mxCell>
                <mxCell id="17" value="Support Knowledge Assistant" style="rounded=0;whiteSpace=wrap;html=1;" parent="1" vertex="1">
                    <mxGeometry x="-105.69999999999999" y="740" width="120" height="60" as="geometry"/>
                </mxCell>
                <mxCell id="18" value="ServiceNow Assistant" style="rounded=0;whiteSpace=wrap;html=1;" parent="1" vertex="1">
                    <mxGeometry x="-105.69999999999999" y="840" width="120" height="60" as="geometry"/>
                </mxCell>
                <mxCell id="19" value="Issue Troubleshooting Assistant" style="rounded=0;whiteSpace=wrap;html=1;" parent="1" vertex="1">
                    <mxGeometry x="-105.69999999999999" y="940" width="120" height="60" as="geometry"/>
                </mxCell>
                <mxCell id="24" value="dRAGon" style="rounded=0;whiteSpace=wrap;html=1;" parent="1" vertex="1">
                    <mxGeometry x="770" y="560" width="160" height="80" as="geometry"/>
                </mxCell>
                <mxCell id="25" value="Vector DB" style="rounded=0;whiteSpace=wrap;html=1;" parent="1" vertex="1">
                    <mxGeometry x="790" y="712.31" width="120" height="60" as="geometry"/>
                </mxCell>
                <mxCell id="26" value="" style="group" parent="1" vertex="1" connectable="0">
                    <mxGeometry x="890" y="930" width="200" height="204.88" as="geometry"/>
                </mxCell>
                <mxCell id="27" value="" style="rounded=0;whiteSpace=wrap;html=1;dashed=1;" parent="26" vertex="1">
                    <mxGeometry y="4.88" width="120" height="200" as="geometry"/>
                </mxCell>
                <mxCell id="28" value="Data Retrieval" style="text;html=1;strokeColor=none;fillColor=none;align=center;verticalAlign=middle;whiteSpace=wrap;rounded=0;dashed=1;" parent="26" vertex="1">
                    <mxGeometry y="4.876923076923077" width="80" height="25.89230769230769" as="geometry"/>
                </mxCell>
                <mxCell id="96" value="Re-ranking" style="rounded=0;whiteSpace=wrap;html=1;" parent="26" vertex="1">
                    <mxGeometry x="20" y="30.77142857142852" width="80" height="38.095238095238095" as="geometry"/>
                </mxCell>
                <mxCell id="97" value="Refinement" style="rounded=0;whiteSpace=wrap;html=1;" parent="26" vertex="1">
                    <mxGeometry x="20" y="85.83238095238094" width="80" height="38.095238095238095" as="geometry"/>
                </mxCell>
                <mxCell id="98" value="Re-retrieval" style="rounded=0;whiteSpace=wrap;html=1;" parent="26" vertex="1">
                    <mxGeometry x="20" y="142.85714285714286" width="80" height="38.095238095238095" as="geometry"/>
                </mxCell>
                <mxCell id="44" value="Prompt Template A" style="rounded=0;whiteSpace=wrap;html=1;" parent="1" vertex="1">
                    <mxGeometry x="230" y="910" width="80" height="40" as="geometry"/>
                </mxCell>
                <mxCell id="46" value="Prompt Template B" style="rounded=0;whiteSpace=wrap;html=1;" parent="1" vertex="1">
                    <mxGeometry x="230" y="980" width="80" height="40" as="geometry"/>
                </mxCell>
                <mxCell id="47" value="Prompt Template C" style="rounded=0;whiteSpace=wrap;html=1;" parent="1" vertex="1">
                    <mxGeometry x="230" y="1050" width="80" height="40" as="geometry"/>
                </mxCell>
                <mxCell id="48" value="Prompt Template D" style="rounded=0;whiteSpace=wrap;html=1;" parent="1" vertex="1">
                    <mxGeometry x="230" y="1120" width="80" height="40" as="geometry"/>
                </mxCell>
                <mxCell id="56" value="Graph DB" style="rounded=0;whiteSpace=wrap;html=1;" parent="1" vertex="1">
                    <mxGeometry x="930" y="712.31" width="120" height="60" as="geometry"/>
                </mxCell>
                <mxCell id="57" value="Relational DB" style="rounded=0;whiteSpace=wrap;html=1;" parent="1" vertex="1">
                    <mxGeometry x="1070" y="712.31" width="120" height="60" as="geometry"/>
                </mxCell>
                <mxCell id="58" value="Elasticsearch" style="rounded=0;whiteSpace=wrap;html=1;" parent="1" vertex="1">
                    <mxGeometry x="1210" y="712.31" width="120" height="60" as="geometry"/>
                </mxCell>
                <mxCell id="77" value="DB" style="text;html=1;strokeColor=none;fillColor=none;align=center;verticalAlign=middle;whiteSpace=wrap;rounded=0;dashed=1;" parent="1" vertex="1">
                    <mxGeometry x="780" y="682.31" width="30" height="20" as="geometry"/>
                </mxCell>
                <mxCell id="78" value="Generation" style="rounded=0;whiteSpace=wrap;html=1;" parent="1" vertex="1">
                    <mxGeometry x="1050" y="1015" width="80" height="40" as="geometry"/>
                </mxCell>
                <mxCell id="79" value="User Query" style="rounded=0;whiteSpace=wrap;html=1;" parent="1" vertex="1">
                    <mxGeometry x="80" y="1005" width="120" height="60" as="geometry"/>
                </mxCell>
                <mxCell id="80" value="Answer" style="rounded=0;whiteSpace=wrap;html=1;" parent="1" vertex="1">
                    <mxGeometry x="1170" y="1005" width="120" height="60" as="geometry"/>
                </mxCell>
                <mxCell id="81" value="" style="endArrow=classic;html=1;exitX=1;exitY=0.5;exitDx=0;exitDy=0;entryX=0;entryY=0.5;entryDx=0;entryDy=0;" parent="1" source="14" target="11" edge="1">
                    <mxGeometry width="50" height="50" relative="1" as="geometry">
                        <mxPoint x="490" y="850" as="sourcePoint"/>
                        <mxPoint x="540" y="800" as="targetPoint"/>
                    </mxGeometry>
                </mxCell>
                <mxCell id="82" value="" style="endArrow=classic;html=1;exitX=1;exitY=0.5;exitDx=0;exitDy=0;entryX=0;entryY=0.5;entryDx=0;entryDy=0;" parent="1" source="14" target="79" edge="1">
                    <mxGeometry width="50" height="50" relative="1" as="geometry">
                        <mxPoint x="490" y="850" as="sourcePoint"/>
                        <mxPoint x="60" y="1040" as="targetPoint"/>
                    </mxGeometry>
                </mxCell>
                <mxCell id="83" value="" style="endArrow=classic;html=1;exitX=1;exitY=0.5;exitDx=0;exitDy=0;entryX=0;entryY=0.5;entryDx=0;entryDy=0;" parent="1" source="79" target="50" edge="1">
                    <mxGeometry width="50" height="50" relative="1" as="geometry">
                        <mxPoint x="310" y="960" as="sourcePoint"/>
                        <mxPoint x="360" y="910" as="targetPoint"/>
                    </mxGeometry>
                </mxCell>
                <mxCell id="84" value="" style="endArrow=classic;html=1;exitX=1;exitY=0.5;exitDx=0;exitDy=0;" parent="1" source="11" target="3" edge="1">
                    <mxGeometry width="50" height="50" relative="1" as="geometry">
                        <mxPoint x="310" y="720" as="sourcePoint"/>
                        <mxPoint x="360" y="670" as="targetPoint"/>
                    </mxGeometry>
                </mxCell>
                <mxCell id="85" value="" style="endArrow=classic;html=1;exitX=1;exitY=0.5;exitDx=0;exitDy=0;entryX=0;entryY=0.5;entryDx=0;entryDy=0;" parent="1" source="50" target="35" edge="1">
                    <mxGeometry width="50" height="50" relative="1" as="geometry">
                        <mxPoint x="310" y="960" as="sourcePoint"/>
                        <mxPoint x="360" y="910" as="targetPoint"/>
                    </mxGeometry>
                </mxCell>
                <mxCell id="86" value="" style="endArrow=classic;html=1;entryX=0.25;entryY=0;entryDx=0;entryDy=0;" parent="1" target="25" edge="1">
                    <mxGeometry width="50" height="50" relative="1" as="geometry">
                        <mxPoint x="820" y="640" as="sourcePoint"/>
                        <mxPoint x="830" y="710" as="targetPoint"/>
                    </mxGeometry>
                </mxCell>
                <mxCell id="91" value="Ingest" style="edgeLabel;html=1;align=center;verticalAlign=middle;resizable=0;points=[];" parent="86" vertex="1" connectable="0">
                    <mxGeometry x="-0.335" y="1" relative="1" as="geometry">
                        <mxPoint x="6" y="1" as="offset"/>
                    </mxGeometry>
                </mxCell>
                <mxCell id="87" value="" style="endArrow=classic;html=1;entryX=0;entryY=0.5;entryDx=0;entryDy=0;" parent="1" target="24" edge="1">
                    <mxGeometry width="50" height="50" relative="1" as="geometry">
                        <mxPoint x="450" y="600" as="sourcePoint"/>
                        <mxPoint x="830" y="890" as="targetPoint"/>
                    </mxGeometry>
                </mxCell>
                <mxCell id="88" value="" style="endArrow=classic;html=1;exitX=1;exitY=0.5;exitDx=0;exitDy=0;entryX=0;entryY=0.5;entryDx=0;entryDy=0;" parent="1" source="53" target="24" edge="1">
                    <mxGeometry width="50" height="50" relative="1" as="geometry">
                        <mxPoint x="780" y="940" as="sourcePoint"/>
                        <mxPoint x="830" y="890" as="targetPoint"/>
                    </mxGeometry>
                </mxCell>
                <mxCell id="90" value="" style="endArrow=classic;html=1;exitX=0.75;exitY=0;exitDx=0;exitDy=0;" parent="1" source="25" edge="1">
                    <mxGeometry width="50" height="50" relative="1" as="geometry">
                        <mxPoint x="880" y="790" as="sourcePoint"/>
                        <mxPoint x="880" y="640" as="targetPoint"/>
                    </mxGeometry>
                </mxCell>
                <mxCell id="92" value="retrieve" style="edgeLabel;html=1;align=center;verticalAlign=middle;resizable=0;points=[];" parent="90" vertex="1" connectable="0">
                    <mxGeometry x="0.1524" relative="1" as="geometry">
                        <mxPoint as="offset"/>
                    </mxGeometry>
                </mxCell>
                <mxCell id="93" value="" style="endArrow=classic;html=1;entryX=0;entryY=0.5;entryDx=0;entryDy=0;exitX=1;exitY=0.5;exitDx=0;exitDy=0;" parent="1" source="27" target="78" edge="1">
                    <mxGeometry width="50" height="50" relative="1" as="geometry">
                        <mxPoint x="1090" y="1035" as="sourcePoint"/>
                        <mxPoint x="890" y="990" as="targetPoint"/>
                    </mxGeometry>
                </mxCell>
                <mxCell id="94" value="" style="endArrow=classic;html=1;exitX=1;exitY=0.5;exitDx=0;exitDy=0;entryX=0;entryY=0.5;entryDx=0;entryDy=0;" parent="1" source="78" target="80" edge="1">
                    <mxGeometry width="50" height="50" relative="1" as="geometry">
                        <mxPoint x="1160" y="1040" as="sourcePoint"/>
                        <mxPoint x="1210" y="990" as="targetPoint"/>
                    </mxGeometry>
                </mxCell>
                <mxCell id="36" value="Query Processor" style="text;html=1;strokeColor=none;fillColor=none;align=center;verticalAlign=middle;whiteSpace=wrap;rounded=0;dashed=1;" parent="1" vertex="1">
                    <mxGeometry x="340" y="850" width="100" height="30" as="geometry"/>
                </mxCell>
                <mxCell id="37" value="Routing" style="rounded=0;whiteSpace=wrap;html=1;" parent="1" vertex="1">
                    <mxGeometry x="455" y="1015" width="80" height="40" as="geometry"/>
                </mxCell>
                <mxCell id="38" value="Query Translation" style="rounded=0;whiteSpace=wrap;html=1;" parent="1" vertex="1">
                    <mxGeometry x="360" y="1015" width="80" height="40" as="geometry"/>
                </mxCell>
                <mxCell id="52" value="Query Construction for Relational DB" style="rounded=0;whiteSpace=wrap;html=1;" parent="1" vertex="1">
                    <mxGeometry x="550" y="905" width="90" height="40" as="geometry"/>
                </mxCell>
                <mxCell id="53" value="Query Construction for Vector DB" style="rounded=0;whiteSpace=wrap;html=1;" parent="1" vertex="1">
                    <mxGeometry x="550" y="980" width="90" height="40" as="geometry"/>
                </mxCell>
                <mxCell id="54" value="Query Construction for Graph DB" style="rounded=0;whiteSpace=wrap;html=1;" parent="1" vertex="1">
                    <mxGeometry x="550" y="1055" width="90" height="40" as="geometry"/>
                </mxCell>
                <mxCell id="55" value="Query Construction for Unknown Issue" style="rounded=0;whiteSpace=wrap;html=1;" parent="1" vertex="1">
                    <mxGeometry x="550" y="1125" width="90" height="40" as="geometry"/>
                </mxCell>
                <mxCell id="99" value="" style="endArrow=classic;html=1;exitX=1;exitY=0.5;exitDx=0;exitDy=0;entryX=0;entryY=0.5;entryDx=0;entryDy=0;" edge="1" parent="1" source="38" target="37">
                    <mxGeometry width="50" height="50" relative="1" as="geometry">
                        <mxPoint x="630" y="900" as="sourcePoint"/>
                        <mxPoint x="680" y="850" as="targetPoint"/>
                    </mxGeometry>
                </mxCell>
                <mxCell id="100" value="" style="endArrow=classic;html=1;exitX=1;exitY=0.5;exitDx=0;exitDy=0;entryX=0;entryY=0.5;entryDx=0;entryDy=0;" edge="1" parent="1" source="37" target="52">
                    <mxGeometry width="50" height="50" relative="1" as="geometry">
                        <mxPoint x="600" y="970" as="sourcePoint"/>
                        <mxPoint x="650" y="920" as="targetPoint"/>
                    </mxGeometry>
                </mxCell>
                <mxCell id="101" value="" style="endArrow=classic;html=1;exitX=1;exitY=0.5;exitDx=0;exitDy=0;entryX=0;entryY=0.5;entryDx=0;entryDy=0;" edge="1" parent="1" source="37" target="53">
                    <mxGeometry width="50" height="50" relative="1" as="geometry">
                        <mxPoint x="600" y="970" as="sourcePoint"/>
                        <mxPoint x="650" y="920" as="targetPoint"/>
                    </mxGeometry>
                </mxCell>
                <mxCell id="102" value="" style="endArrow=classic;html=1;exitX=1;exitY=0.5;exitDx=0;exitDy=0;entryX=0;entryY=0.5;entryDx=0;entryDy=0;" edge="1" parent="1" source="37" target="54">
                    <mxGeometry width="50" height="50" relative="1" as="geometry">
                        <mxPoint x="600" y="970" as="sourcePoint"/>
                        <mxPoint x="650" y="920" as="targetPoint"/>
                    </mxGeometry>
                </mxCell>
                <mxCell id="105" value="" style="endArrow=classic;html=1;exitX=1;exitY=0.5;exitDx=0;exitDy=0;entryX=0;entryY=0.5;entryDx=0;entryDy=0;" edge="1" parent="1" source="37" target="55">
                    <mxGeometry width="50" height="50" relative="1" as="geometry">
                        <mxPoint x="580" y="1090" as="sourcePoint"/>
                        <mxPoint x="630" y="1040" as="targetPoint"/>
                    </mxGeometry>
                </mxCell>
                <mxCell id="115" value="" style="endArrow=classic;html=1;exitX=1;exitY=0.5;exitDx=0;exitDy=0;entryX=0.035;entryY=1.001;entryDx=0;entryDy=0;entryPerimeter=0;" edge="1" parent="1" source="35" target="76">
                    <mxGeometry width="50" height="50" relative="1" as="geometry">
                        <mxPoint x="950" y="960" as="sourcePoint"/>
                        <mxPoint x="798" y="810.2699999999998" as="targetPoint"/>
                    </mxGeometry>
                </mxCell>
                <mxCell id="116" value="" style="endArrow=classic;html=1;exitX=0.035;exitY=0.979;exitDx=0;exitDy=0;exitPerimeter=0;entryX=0;entryY=0.5;entryDx=0;entryDy=0;" edge="1" parent="1" source="76" target="27">
                    <mxGeometry width="50" height="50" relative="1" as="geometry">
                        <mxPoint x="799.9200000000001" y="810" as="sourcePoint"/>
                        <mxPoint x="720" y="910" as="targetPoint"/>
                    </mxGeometry>
                </mxCell>
                <mxCell id="120" value="" style="endArrow=classic;html=1;exitX=1;exitY=0.5;exitDx=0;exitDy=0;entryX=0;entryY=0.5;entryDx=0;entryDy=0;" edge="1" parent="1" source="118" target="76">
                    <mxGeometry width="50" height="50" relative="1" as="geometry">
                        <mxPoint x="780" y="590" as="sourcePoint"/>
                        <mxPoint x="830" y="540" as="targetPoint"/>
                    </mxGeometry>
                </mxCell>
                <mxCell id="127" value="" style="group" vertex="1" connectable="0" parent="1">
                    <mxGeometry x="70" y="350" width="400" height="460" as="geometry"/>
                </mxCell>
                <mxCell id="122" value="" style="endArrow=none;html=1;dashed=1;" edge="1" parent="127">
                    <mxGeometry width="50" height="50" relative="1" as="geometry">
                        <mxPoint y="460" as="sourcePoint"/>
                        <mxPoint as="targetPoint"/>
                    </mxGeometry>
                </mxCell>
                <mxCell id="123" value="" style="endArrow=none;html=1;dashed=1;" edge="1" parent="127">
                    <mxGeometry width="50" height="50" relative="1" as="geometry">
                        <mxPoint as="sourcePoint"/>
                        <mxPoint x="400" as="targetPoint"/>
                    </mxGeometry>
                </mxCell>
                <mxCell id="124" value="" style="endArrow=none;html=1;dashed=1;" edge="1" parent="127">
                    <mxGeometry width="50" height="50" relative="1" as="geometry">
                        <mxPoint x="400" y="460" as="sourcePoint"/>
                        <mxPoint x="400" as="targetPoint"/>
                    </mxGeometry>
                </mxCell>
                <mxCell id="125" value="" style="endArrow=none;html=1;dashed=1;" edge="1" parent="127">
                    <mxGeometry width="50" height="50" relative="1" as="geometry">
                        <mxPoint y="460" as="sourcePoint"/>
                        <mxPoint x="400" y="460" as="targetPoint"/>
                    </mxGeometry>
                </mxCell>
                <mxCell id="128" value="Ingestion Service" style="text;html=1;strokeColor=none;fillColor=none;align=center;verticalAlign=middle;whiteSpace=wrap;rounded=0;dashed=1;fontSize=16;" vertex="1" parent="127">
                    <mxGeometry y="-0.0033333333333338544" width="140" height="28.75" as="geometry"/>
                </mxCell>
                <mxCell id="135" value="" style="group" vertex="1" connectable="0" parent="1">
                    <mxGeometry x="60" y="840" width="1260" height="390" as="geometry"/>
                </mxCell>
                <mxCell id="130" value="" style="endArrow=none;html=1;dashed=1;fontSize=16;" edge="1" parent="135">
                    <mxGeometry width="50" height="50" relative="1" as="geometry">
                        <mxPoint y="390" as="sourcePoint"/>
                        <mxPoint as="targetPoint"/>
                    </mxGeometry>
                </mxCell>
                <mxCell id="131" value="" style="endArrow=none;html=1;dashed=1;fontSize=16;" edge="1" parent="135">
                    <mxGeometry width="50" height="50" relative="1" as="geometry">
                        <mxPoint as="sourcePoint"/>
                        <mxPoint x="1260" as="targetPoint"/>
                    </mxGeometry>
                </mxCell>
                <mxCell id="132" value="" style="endArrow=none;html=1;dashed=1;fontSize=16;" edge="1" parent="135">
                    <mxGeometry width="50" height="50" relative="1" as="geometry">
                        <mxPoint y="390" as="sourcePoint"/>
                        <mxPoint x="1260" y="390" as="targetPoint"/>
                    </mxGeometry>
                </mxCell>
                <mxCell id="133" value="" style="endArrow=none;html=1;dashed=1;fontSize=16;" edge="1" parent="135">
                    <mxGeometry width="50" height="50" relative="1" as="geometry">
                        <mxPoint x="1260" y="390" as="sourcePoint"/>
                        <mxPoint x="1260" as="targetPoint"/>
                    </mxGeometry>
                </mxCell>
                <mxCell id="136" value="Query Service" style="text;html=1;strokeColor=none;fillColor=none;align=center;verticalAlign=middle;whiteSpace=wrap;rounded=0;dashed=1;fontSize=16;" vertex="1" parent="135">
                    <mxGeometry width="120" height="28.75" as="geometry"/>
                </mxCell>
            </root>
        </mxGraphModel>
    </diagram>
</mxfile>